<?xml version="1.0" encoding="utf-8"?>
<!-- Generator: Adobe Illustrator 16.0.0, SVG Export Plug-In . SVG Version: 6.00 Build 0)  -->
<!DOCTYPE svg PUBLIC "-//W3C//DTD SVG 1.1//EN" "http://www.w3.org/Graphics/SVG/1.1/DTD/svg11.dtd">
<svg version="1.1" id="Layer_1" xmlns="http://www.w3.org/2000/svg" xmlns:xlink="http://www.w3.org/1999/xlink" x="0px" y="0px"
	 width="205.061px" height="163.039px" viewBox="0 0 205.061 163.039" enable-background="new 0 0 205.061 163.039"
	 xml:space="preserve">
<g>
	<path fill="#FFFFFF" d="M47.085,105.033h-1.726v8.762c0,0.136,1.21,0.136,2.496,0.136c3.416,0,6.223-1.32,6.223-4.517
		C54.079,106.355,50.847,105.033,47.085,105.033z"/>
	<path fill="#FFFFFF" d="M53.075,96.451c0-2.295-1.506-3.433-4.921-3.433c-1.684,0-2.794,0.167-2.794,0.302v6.713h1.627
		C50.996,100.033,53.075,98.701,53.075,96.451z"/>
	<path fill="#FFFFFF" d="M127.842,46.291c-6.204,0-9.307,4.18-9.307,12.539c0,8.281,3.081,12.422,9.244,12.422
		c3.134,0,5.457-1.006,6.973-3.018c1.515-2.011,2.271-5.146,2.271-9.404c0-4.277-0.769-7.437-2.303-9.478
		C133.186,47.312,130.893,46.291,127.842,46.291z"/>
	<path fill="#FFFFFF" d="M169.393,0L102.87,0.236L35.658,0.039L0,56.574l12.34,64.333l54.527,42.127h36.492v-0.125l34.959,0.129
		l54.434-42.127l12.309-64.434L169.393,0z M64.889,42.438c3.813-3.76,9.354-5.64,16.624-5.64c7.291,0,12.816,1.865,16.576,5.596
		c3.762,3.731,5.641,9.209,5.641,16.436c0,7.207-1.891,12.686-5.671,16.436c-3.781,3.75-9.318,5.625-16.608,5.625
		c-7.187,0-12.697-1.885-16.53-5.654c-3.834-3.769-5.75-9.258-5.75-16.465C59.17,51.643,61.076,46.199,64.889,42.438z
		 M22.337,59.006c0-4.434,0.895-8.33,2.681-11.689s4.354-5.942,7.708-7.749c3.353-1.806,7.296-2.71,11.83-2.71
		c4.95,0,9.683,1.006,14.194,3.018l-3.792,9.111c-1.691-0.742-3.385-1.367-5.077-1.875c-1.691-0.508-3.51-0.762-5.452-0.762
		c-2.946,0-5.244,1.128-6.895,3.384c-1.651,2.256-2.476,5.366-2.476,9.331c0,8.243,3.353,12.363,10.059,12.363
		c2.026,0,4.297-0.264,6.198-0.791c1.9-0.527,4.042-1.162,6.042-1.904v9.785c-4,1.582-8.455,2.373-13.281,2.373
		c-6.915,0-12.37-1.875-16.057-5.625C24.334,71.516,22.337,66.096,22.337,59.006z M58.322,116.225
		c-2.425,1.756-6.323,2.745-12.956,2.745c-3.712,0-6.006-0.227-8.006-0.45V88.775c2-0.359,5.779-0.674,9.59-0.674
		c4.604,0,7.344,0.404,9.771,1.709c2.326,1.125,4.022,3.195,4.022,5.984c0,2.656-1.383,5.131-5.383,6.436v0.09
		c4,0.9,6.53,3.555,6.53,7.471C61.89,112.58,60.401,114.74,58.322,116.225z M81.359,106.009v13.023h-7v-12.798L63.123,88.033h8.663
		l3.366,7.242c1.039,2.205,1.782,3.758,2.574,5.758h0.099c0.742-2,1.534-3.598,2.524-5.758l3.365-7.242h8.465L81.359,106.009z
		 M119.359,94.033h-9v25h-7v-25h-9v-6h25V94.033z M144.359,119.033h-21v-31h20v6h-13v6h12v6h-12v7h14V119.033z M127.779,80.891
		c-7.188,0-12.697-1.885-16.53-5.654c-3.834-3.769-5.751-9.258-5.751-16.465c0-7.129,1.906-12.573,5.72-16.333
		c3.813-3.76,9.354-5.64,16.624-5.64c7.291,0,12.816,1.865,16.577,5.596c3.762,3.731,5.642,9.209,5.642,16.436
		c0,7.207-1.892,12.686-5.672,16.436C140.607,79.017,135.07,80.891,127.779,80.891z M155.935,119.15
		c-3.813,0-7.573-0.945-9.454-1.891l1.534-5.625c1.979,0.945,5.146,1.891,8.364,1.891c3.466,0,5.296-1.305,5.296-3.33
		c0-1.846-1.584-2.971-5.593-4.23c-5.544-1.799-9.207-4.59-9.207-9.043c0-5.176,4.803-9.09,12.622-9.09
		c3.813,0,6.534,0.674,8.515,1.529l-1.684,5.489c-1.286-0.585-3.712-1.44-6.93-1.44c-3.268,0-4.852,1.396-4.852,2.926
		c0,1.936,1.831,2.789,6.188,4.319c5.891,1.979,8.612,4.771,8.612,9.091C169.349,114.83,165.092,119.15,155.935,119.15z
		 M184.359,80.033h-30v-43h12v34h18V80.033z"/>
	<path fill="#FFFFFF" d="M81.451,71.252c3.134,0,5.458-1.006,6.972-3.018c1.516-2.011,2.272-5.146,2.272-9.404
		c0-4.277-0.769-7.437-2.303-9.478c-1.535-2.041-3.828-3.062-6.878-3.062c-6.205,0-9.308,4.18-9.308,12.539
		C72.206,67.111,75.288,71.252,81.451,71.252z"/>
</g>
</svg>
